<?xml version="1.0" encoding="UTF-8" standalone="no"?>
<!DOCTYPE svg PUBLIC "-//W3C//DTD SVG 1.1//EN" "http://www.w3.org/Graphics/SVG/1.1/DTD/svg11.dtd">
<svg width="100%" height="100%" viewBox="0 0 900 600" version="1.1" xmlns="http://www.w3.org/2000/svg" xmlns:xlink="http://www.w3.org/1999/xlink" xml:space="preserve" xmlns:serif="http://www.serif.com/" style="fill-rule:evenodd;clip-rule:evenodd;stroke-linejoin:round;stroke-miterlimit:2;">
    <rect x="0" y="0" width="900" height="600" style="fill:white;fill-rule:nonzero;"/>
    <path id="a" d="M463.1,506.741C462.968,506.685 462.85,506.601 462.753,506.496L462.628,506.379C462.072,505.86 461.544,505.311 461.046,504.736C459.714,503.223 457.927,501.008 456.356,499.051C453.241,495.168 450.667,491.823 450.182,491.193L449.389,490.161L441.622,487.766L435.951,485.122L438.981,481.716L449.389,486.172L457.156,487.766L471.519,498.33L471.508,498.339C471.479,498.363 469.419,500.077 467.372,501.939C466.459,502.769 465.308,503.839 464.495,504.722C464.16,505.081 463.849,505.462 463.565,505.862C463.394,506.147 463.239,506.44 463.1,506.742M409.76,490.722C402.753,490.658 395.887,488.737 389.865,485.155L389.858,485.155L389.858,485.147C390.591,483.925 391.571,482.869 392.736,482.047C394.677,480.622 398.178,478.919 403.836,478.897L403.953,478.897C410.653,478.897 418.853,481.175 428.326,485.668C422.711,489.005 416.292,490.752 409.76,490.722L409.77,490.732L409.76,490.722ZM380.39,484.212C379.193,484.235 378.041,483.751 377.22,482.879C376.511,482.055 376.023,481.064 375.8,480C375.48,478.619 375.361,477.198 375.449,475.783C375.943,475.569 376.473,475.449 377.011,475.429L377.123,475.429C379.634,475.429 381.613,477.607 382.461,479.766C382.923,480.72 383.021,481.812 382.735,482.833C382.31,483.724 381.38,484.268 380.395,484.203L380.39,484.212ZM432.07,478.222C414.711,475.743 407.353,469.467 404.237,464.639C402.264,461.71 401.336,458.2 401.603,454.679L401.603,454.665L401.616,454.665C402.488,454.465 403.38,454.366 404.274,454.372C408.892,454.372 420.704,456.695 432.074,478.214L432.081,478.228L432.061,478.218L432.07,478.222ZM396.49,474.782C389.074,474.782 383.428,473.502 379.708,470.982C378.126,469.969 376.852,468.542 376.022,466.857C375.719,466.218 375.519,465.535 375.428,464.834C377.899,463.832 380.528,463.274 383.193,463.184C383.576,463.166 383.962,463.155 384.367,463.154C390.099,463.154 398.815,465.024 408.013,473.934L408.022,473.943L408.011,473.943C404.19,474.47 400.338,474.75 396.481,474.783L396.49,474.782ZM360.58,473.402C352.76,473.402 342.017,471.014 335.317,464.315L335.31,464.307L335.33,464.307C340.423,463.104 345.623,462.413 350.853,462.245C351.341,462.233 351.833,462.227 352.328,462.226C359.66,462.226 365.272,463.648 369.01,466.451C370.054,467.078 370.83,468.07 371.188,469.234C371.271,470.091 370.861,470.926 370.132,471.384C368.449,472.655 365.44,473.333 361.187,473.401L360.587,473.421L360.58,473.402ZM335.24,460.402C334.281,460.403 333.371,459.975 332.761,459.235C332.197,458.494 331.817,457.63 331.653,456.713C331.398,455.506 331.3,454.271 331.362,453.039L331.362,453.021C331.744,452.845 332.159,452.751 332.579,452.746C333.559,452.782 334.488,453.197 335.168,453.904C335.925,454.646 336.502,455.55 336.856,456.549C337.21,457.382 337.274,458.311 337.036,459.184C336.745,459.919 336.027,460.402 335.236,460.394L335.24,460.402ZM393.77,459.082C392.573,459.105 391.421,458.621 390.6,457.749C389.891,456.925 389.402,455.935 389.178,454.871C388.858,453.49 388.739,452.069 388.827,450.654C389.321,450.44 389.851,450.32 390.389,450.3L390.501,450.3C393.012,450.3 394.991,452.478 395.839,454.637C396.301,455.591 396.399,456.683 396.113,457.704C395.689,458.595 394.758,459.14 393.773,459.074L393.77,459.082ZM365.26,457.902C349.523,457.348 341.36,452.875 337.276,449.219C335.53,447.689 334.091,445.84 333.036,443.772C332.643,442.996 332.339,442.178 332.128,441.334L332.149,441.325C333.409,440.943 334.718,440.748 336.034,440.746L336.402,440.746C341.709,440.746 352.513,442.975 365.254,457.899L365.254,457.909L365.26,457.902ZM382.35,456.312C369.689,454.384 362.516,448.949 358.728,444.727C356.39,442.217 354.613,439.238 353.515,435.989C354.795,435.696 356.102,435.538 357.415,435.52C357.584,435.52 357.76,435.513 357.939,435.513C358.118,435.513 358.304,435.513 358.492,435.52C364.86,435.659 376.426,438.543 382.347,456.305L382.357,456.305L382.35,456.312ZM317.35,450.232C313.32,450.245 309.303,449.764 305.39,448.8C298.761,447.142 295.917,444.611 294.699,442.779C294.174,442.02 293.822,441.155 293.668,440.245C293.613,439.89 293.602,439.53 293.637,439.172L293.668,439.161C297.092,438.312 300.604,437.866 304.132,437.833C304.371,437.833 304.612,437.827 304.857,437.827C307.732,437.822 310.6,438.1 313.421,438.657C319.816,439.994 325.519,443.596 329.474,448.797L329.474,448.806L329.461,448.806C325.495,449.776 321.424,450.253 317.341,450.226L317.35,450.232ZM346.74,439.552C345.547,439.584 344.395,439.112 343.568,438.252C342.857,437.418 342.368,436.418 342.148,435.344C341.827,433.974 341.709,432.564 341.797,431.159C342.291,430.945 342.821,430.825 343.359,430.805L343.471,430.805C345.977,430.805 347.959,432.984 348.81,435.143C349.263,436.089 349.349,437.171 349.053,438.177C348.648,439.073 347.724,439.625 346.743,439.557L346.74,439.552ZM324.64,436.522C320.433,435.331 316.407,433.573 312.673,431.297C307.129,427.884 300.347,421.847 299.52,412.467L299.534,412.467C299.954,412.377 300.382,412.326 300.812,412.313C300.912,412.313 301.029,412.307 301.146,412.307C302.802,412.307 306.192,412.773 310.293,415.891C315.513,419.871 320.333,426.811 324.643,436.541L324.64,436.522ZM339.07,435.992C335.636,434.432 332.447,432.383 329.601,429.908C322.246,423.578 316.514,415.578 312.885,406.578C314.026,406.043 315.281,405.797 316.54,405.86C318.951,405.928 322.623,406.93 326.694,411.323C331.37,416.37 335.544,424.663 339.094,435.974L339.104,436.006L339.074,435.996L339.07,435.992ZM301.68,434.902C296.859,434.902 295.209,432.287 294.723,431.162C294.239,429.99 294.049,428.717 294.169,427.455L294.169,427.435C294.954,427.239 295.76,427.134 296.569,427.121L296.734,427.121C299.884,427.044 302.889,428.471 304.818,430.962C305.073,431.341 305.855,432.656 305.208,433.683C304.688,434.493 303.508,434.903 301.678,434.903L301.68,434.902ZM291,421.431C287.266,421.44 283.538,421.121 279.859,420.479C275.565,419.698 273.131,416.047 271.846,413.123C270.982,411.124 270.377,409.022 270.046,406.869L270.058,406.869C283.34,407.259 289.613,411.14 292.536,414.326C294.347,416.211 295.476,418.648 295.742,421.248L295.733,421.248C295.713,421.248 293.843,421.428 290.993,421.428L291,421.431ZM304.83,407.611C303.751,406.251 302.739,404.84 301.797,403.383C300.224,400.938 298.769,398.383 298.769,396.299C298.769,394.283 298.295,390.033 298.012,387.68C297.654,384.695 297.292,382.14 297.262,381.923L297.275,381.923C297.612,382.046 305.583,385.037 305.583,392.514C305.583,399.991 304.845,407.528 304.838,407.603L304.838,407.614L304.828,407.614L304.83,407.611ZM294.5,406.901C294.416,406.901 294.333,406.893 294.25,406.88C291.894,406.487 287.75,404.686 283.177,402.062C278.095,399.148 273.968,396.026 271.557,393.271C269.357,390.759 268.057,386.814 267.677,381.545C267.509,379.159 267.539,376.763 267.764,374.382C268.189,374.245 268.633,374.177 269.079,374.182C270.843,374.211 272.726,375.005 275.268,376.756C277.585,378.405 279.756,380.25 281.758,382.27C284.3,384.795 286.703,387.456 288.958,390.241L288.99,390.281C289.255,390.756 291.527,394.852 293.297,398.839C294.182,400.674 294.861,402.601 295.321,404.585C295.495,405.166 295.495,405.785 295.321,406.366C295.247,406.554 295.111,406.712 294.936,406.814C294.797,406.874 294.647,406.905 294.496,406.904L294.5,406.901Z" style="fill:rgb(78,91,49);fill-rule:nonzero;"/>
    <g id="a1" serif:id="a" transform="matrix(-1,0,0,1,900,0)">
        <path d="M463.1,506.741C462.968,506.685 462.85,506.601 462.753,506.496L462.628,506.379C462.072,505.86 461.544,505.311 461.046,504.736C459.714,503.223 457.927,501.008 456.356,499.051C453.241,495.168 450.667,491.823 450.182,491.193L449.389,490.161L441.622,487.766L435.951,485.122L438.981,481.716L449.389,486.172L457.156,487.766L471.519,498.33L471.508,498.339C471.479,498.363 469.419,500.077 467.372,501.939C466.459,502.769 465.308,503.839 464.495,504.722C464.16,505.081 463.849,505.462 463.565,505.862C463.394,506.147 463.239,506.44 463.1,506.742M409.76,490.722C402.753,490.658 395.887,488.737 389.865,485.155L389.858,485.155L389.858,485.147C390.591,483.925 391.571,482.869 392.736,482.047C394.677,480.622 398.178,478.919 403.836,478.897L403.953,478.897C410.653,478.897 418.853,481.175 428.326,485.668C422.711,489.005 416.292,490.752 409.76,490.722L409.77,490.732L409.76,490.722ZM380.39,484.212C379.193,484.235 378.041,483.751 377.22,482.879C376.511,482.055 376.023,481.064 375.8,480C375.48,478.619 375.361,477.198 375.449,475.783C375.943,475.569 376.473,475.449 377.011,475.429L377.123,475.429C379.634,475.429 381.613,477.607 382.461,479.766C382.923,480.72 383.021,481.812 382.735,482.833C382.31,483.724 381.38,484.268 380.395,484.203L380.39,484.212ZM432.07,478.222C414.711,475.743 407.353,469.467 404.237,464.639C402.264,461.71 401.336,458.2 401.603,454.679L401.603,454.665L401.616,454.665C402.488,454.465 403.38,454.366 404.274,454.372C408.892,454.372 420.704,456.695 432.074,478.214L432.081,478.228L432.061,478.218L432.07,478.222ZM396.49,474.782C389.074,474.782 383.428,473.502 379.708,470.982C378.126,469.969 376.852,468.542 376.022,466.857C375.719,466.218 375.519,465.535 375.428,464.834C377.899,463.832 380.528,463.274 383.193,463.184C383.576,463.166 383.962,463.155 384.367,463.154C390.099,463.154 398.815,465.024 408.013,473.934L408.022,473.943L408.011,473.943C404.19,474.47 400.338,474.75 396.481,474.783L396.49,474.782ZM360.58,473.402C352.76,473.402 342.017,471.014 335.317,464.315L335.31,464.307L335.33,464.307C340.423,463.104 345.623,462.413 350.853,462.245C351.341,462.233 351.833,462.227 352.328,462.226C359.66,462.226 365.272,463.648 369.01,466.451C370.054,467.078 370.83,468.07 371.188,469.234C371.271,470.091 370.861,470.926 370.132,471.384C368.449,472.655 365.44,473.333 361.187,473.401L360.587,473.421L360.58,473.402ZM335.24,460.402C334.281,460.403 333.371,459.975 332.761,459.235C332.197,458.494 331.817,457.63 331.653,456.713C331.398,455.506 331.3,454.271 331.362,453.039L331.362,453.021C331.744,452.845 332.159,452.751 332.579,452.746C333.559,452.782 334.488,453.197 335.168,453.904C335.925,454.646 336.502,455.55 336.856,456.549C337.21,457.382 337.274,458.311 337.036,459.184C336.745,459.919 336.027,460.402 335.236,460.394L335.24,460.402ZM393.77,459.082C392.573,459.105 391.421,458.621 390.6,457.749C389.891,456.925 389.402,455.935 389.178,454.871C388.858,453.49 388.739,452.069 388.827,450.654C389.321,450.44 389.851,450.32 390.389,450.3L390.501,450.3C393.012,450.3 394.991,452.478 395.839,454.637C396.301,455.591 396.399,456.683 396.113,457.704C395.689,458.595 394.758,459.14 393.773,459.074L393.77,459.082ZM365.26,457.902C349.523,457.348 341.36,452.875 337.276,449.219C335.53,447.689 334.091,445.84 333.036,443.772C332.643,442.996 332.339,442.178 332.128,441.334L332.149,441.325C333.409,440.943 334.718,440.748 336.034,440.746L336.402,440.746C341.709,440.746 352.513,442.975 365.254,457.899L365.254,457.909L365.26,457.902ZM382.35,456.312C369.689,454.384 362.516,448.949 358.728,444.727C356.39,442.217 354.613,439.238 353.515,435.989C354.795,435.696 356.102,435.538 357.415,435.52C357.584,435.52 357.76,435.513 357.939,435.513C358.118,435.513 358.304,435.513 358.492,435.52C364.86,435.659 376.426,438.543 382.347,456.305L382.357,456.305L382.35,456.312ZM317.35,450.232C313.32,450.245 309.303,449.764 305.39,448.8C298.761,447.142 295.917,444.611 294.699,442.779C294.174,442.02 293.822,441.155 293.668,440.245C293.613,439.89 293.602,439.53 293.637,439.172L293.668,439.161C297.092,438.312 300.604,437.866 304.132,437.833C304.371,437.833 304.612,437.827 304.857,437.827C307.732,437.822 310.6,438.1 313.421,438.657C319.816,439.994 325.519,443.596 329.474,448.797L329.474,448.806L329.461,448.806C325.495,449.776 321.424,450.253 317.341,450.226L317.35,450.232ZM346.74,439.552C345.547,439.584 344.395,439.112 343.568,438.252C342.857,437.418 342.368,436.418 342.148,435.344C341.827,433.974 341.709,432.564 341.797,431.159C342.291,430.945 342.821,430.825 343.359,430.805L343.471,430.805C345.977,430.805 347.959,432.984 348.81,435.143C349.263,436.089 349.349,437.171 349.053,438.177C348.648,439.073 347.724,439.625 346.743,439.557L346.74,439.552ZM324.64,436.522C320.433,435.331 316.407,433.573 312.673,431.297C307.129,427.884 300.347,421.847 299.52,412.467L299.534,412.467C299.954,412.377 300.382,412.326 300.812,412.313C300.912,412.313 301.029,412.307 301.146,412.307C302.802,412.307 306.192,412.773 310.293,415.891C315.513,419.871 320.333,426.811 324.643,436.541L324.64,436.522ZM339.07,435.992C335.636,434.432 332.447,432.383 329.601,429.908C322.246,423.578 316.514,415.578 312.885,406.578C314.026,406.043 315.281,405.797 316.54,405.86C318.951,405.928 322.623,406.93 326.694,411.323C331.37,416.37 335.544,424.663 339.094,435.974L339.104,436.006L339.074,435.996L339.07,435.992ZM301.68,434.902C296.859,434.902 295.209,432.287 294.723,431.162C294.239,429.99 294.049,428.717 294.169,427.455L294.169,427.435C294.954,427.239 295.76,427.134 296.569,427.121L296.734,427.121C299.884,427.044 302.889,428.471 304.818,430.962C305.073,431.341 305.855,432.656 305.208,433.683C304.688,434.493 303.508,434.903 301.678,434.903L301.68,434.902ZM291,421.431C287.266,421.44 283.538,421.121 279.859,420.479C275.565,419.698 273.131,416.047 271.846,413.123C270.982,411.124 270.377,409.022 270.046,406.869L270.058,406.869C283.34,407.259 289.613,411.14 292.536,414.326C294.347,416.211 295.476,418.648 295.742,421.248L295.733,421.248C295.713,421.248 293.843,421.428 290.993,421.428L291,421.431ZM304.83,407.611C303.751,406.251 302.739,404.84 301.797,403.383C300.224,400.938 298.769,398.383 298.769,396.299C298.769,394.283 298.295,390.033 298.012,387.68C297.654,384.695 297.292,382.14 297.262,381.923L297.275,381.923C297.612,382.046 305.583,385.037 305.583,392.514C305.583,399.991 304.845,407.528 304.838,407.603L304.838,407.614L304.828,407.614L304.83,407.611ZM294.5,406.901C294.416,406.901 294.333,406.893 294.25,406.88C291.894,406.487 287.75,404.686 283.177,402.062C278.095,399.148 273.968,396.026 271.557,393.271C269.357,390.759 268.057,386.814 267.677,381.545C267.509,379.159 267.539,376.763 267.764,374.382C268.189,374.245 268.633,374.177 269.079,374.182C270.843,374.211 272.726,375.005 275.268,376.756C277.585,378.405 279.756,380.25 281.758,382.27C284.3,384.795 286.703,387.456 288.958,390.241L288.99,390.281C289.255,390.756 291.527,394.852 293.297,398.839C294.182,400.674 294.861,402.601 295.321,404.585C295.495,405.166 295.495,405.785 295.321,406.366C295.247,406.554 295.111,406.712 294.936,406.814C294.797,406.874 294.647,406.905 294.496,406.904L294.5,406.901Z" style="fill:rgb(78,91,49);fill-rule:nonzero;"/>
    </g>
    <path d="M470.502,226.032L462.238,228.441L455.912,233.045L449.19,234.077L440.893,235.165L428.74,234.031L422.757,232.386L416.053,229.922L411.499,230.792L402.874,236.647L399.43,237.047L391.399,236.387L385.3,237.062L376.142,244.325L364.492,254.086L358.895,255.662L350.403,256.544L346.728,257.475L343.75,262.502L339.436,261.137L332.201,252.505L322.778,241.709L317.627,237.87L317.143,234.5L319.078,227.524L316.531,227.395L313.865,228.634L312.514,229.263L310.807,228.585L309.572,228.662L308.172,230.777L308,231.1L307.036,231.61L305.836,231.593L304.897,231.568L303.881,232.012L302.513,232.605L301.305,233.132L300.715,233.387L300.705,233.377L300.342,233.45L299.697,233.562L298.897,233.715L297.487,232.891L296.737,232.449L295.48,232.193L294.803,232.682L294.67,234.982L294.052,236.36L292.091,238.094L290.098,239.849L288.709,241.896L285.033,250.286L282.733,253.671L282.018,254.46L279.6,257.12L277.464,258.777L272.542,262.592L267.883,264.333L263.87,265.153L261.919,265.161L258.219,264.669L254.896,263.649L251.246,261.367L247.246,258.15L241.452,252.426L240.632,251.933L240.461,251.819L238.636,250.652L237.282,250.687L236.752,251.561L236.462,252.824L236.217,253.944L235.553,260.311L235.602,260.68L235.951,263.302L240.351,269.452L241.709,272.719L241.932,273.092L242.84,274.617L243.531,275.78L243.6,275.898L245.1,280.386L244.043,282.92L244.577,284.62L243.241,285.657L242.996,287.122L246.947,292.075L247.809,294.26L246.846,297.289L245.31,298.96L244.881,299.417L245.097,300.697L246.915,302.332L250.004,305.082L251.651,309.168L252.904,310.268L254.36,309.958L255.17,310.576L256.398,310.555L257.606,311.763L258.388,312.142L259.624,312.758L260.601,314.03L260.817,317.941L262.639,322.801L262.667,325.436L262.677,325.81L263.811,327.758L264.167,329.296L263.567,333.365L265.012,334.671L266.579,334.351L267.591,334.511L269.217,335.865L271.186,338.865L273.112,338.583L274.334,339.172L280.234,344.506L281.573,345.182L281.647,345.224L282.61,345.707L283.81,346.915L285.666,345.683L285.872,345.662L287.89,345.484L288.776,346.084L290.476,347.233L292.71,347.204L297.554,348.689L299.673,349.232L303.934,351.88L305.745,353L306.817,353.871L308.241,355.032L311.086,356.256L313.526,356.84L314.848,357.154L315.848,357.538L315.873,357.476L315.887,357.476L315.863,357.539L321.147,359.562L324.009,360.23L326.657,361.205L328.584,361.905L329.998,361.928L331.998,360.246L333.935,360.134L335.544,360.534L337.114,360.271L339.599,358.74L340.084,358.021L341.846,357.182L347.79,356.444L349.527,357.008L353.987,355.068L356.975,355.899L359.62,354.961L365.399,356.245L366.935,357.326L368.652,359.291L368.862,359.3L370.774,359.337L369.974,360.668L372.497,363.315L374.776,366.76L374.93,367.215L376.587,372.079L377.819,373.802L378.681,376.207L378.723,377.775L377.383,378.797L377.163,379.38L377.087,379.596L377.359,380.251L377.865,379.975L378.828,379.442L380,379.26L382.066,379.48L383.43,379.623L385.584,378.554L387.011,377.844L389.304,378.831L391.824,378.803L392.882,379.274L395.882,380.632L397.411,380.776L397.976,380.405L398.336,379.549L398.151,378.549L397,377.23L394.469,374.292L393.433,372.782L392.644,370.596L392.4,367.8L392.226,365.915L392.54,363.438L393.22,362.554L393.72,360.586L393.729,360.586L393.858,360.071L395.264,358.205L398.988,355.812L402.988,352.23L406.15,350.145L409.41,348.733L409.497,348.333L409.86,348.479L418.152,345.66L418.289,345.644L421.981,345.001L446.901,346.756L447.825,346.477L447.825,346.471L448.655,344.141L449.102,343.709L449.402,343.427L452.142,342.221L453.423,342.038L456.979,342.916L458.435,343.275L460.767,341.968L462.421,341.996L465.838,340.13L467.949,340.183L468.749,339.862L472.861,336.907L476.822,335.772L477.852,335.224L478.215,335.024L482.275,332.88L484.854,330.899L487.08,329.716L489.518,329.087L495.898,328.638L497.181,326.5L499.925,326.134L501.582,324.264L503.482,323.493L504.841,321.535L505.98,319.894L507.571,318.973L512.671,318.653L518.716,319.402L519.516,318.917L520.882,314.042L522.312,313.127L526.163,307.515L526.176,305.47L526.176,303.762L526.809,301.33L526.379,296.939L526.889,292.493L529.283,286.843L531.392,284.564L534.792,282.264L536.521,281.511L538.97,281.099L538.97,281.1L542.891,281.233L543.056,279.469L547.155,274.34L535.077,268.167C535.194,268.08 522.506,263.173 522.506,263.173L513.268,262.725L510.734,263.839L508.56,268.007L506.575,270.086L503.305,271.075L500.124,268.901L499.245,259.038L495.957,242.179L491.226,233.232L486.792,229.759L478.477,225.575L470.502,226.032Z" style="fill:rgb(213,120,0);fill-rule:nonzero;"/>
</svg>
